<?xml version="1.0" encoding="utf-8"?>
<!-- Generator: Adobe Illustrator 28.4.1, SVG Export Plug-In . SVG Version: 6.00 Build 0)  -->
<svg version="1.1" id="Layer_1" xmlns="http://www.w3.org/2000/svg" xmlns:xlink="http://www.w3.org/1999/xlink" x="0px" y="0px"
	 viewBox="0 0 475 80" style="enable-background:new 0 0 475 80;" xml:space="preserve">
<g>
	<path d="M28.45,0.9v6.96c-2.41,0-4.34,0.36-5.8,1.07c-1.46,0.71-2.09,2.06-1.9,4.05l1.29,12.34c0.39,3.78-0.33,6.53-2.16,8.23
		c-1.83,1.71-4.39,2.82-7.68,3.33c3.46,0.54,6.07,1.64,7.83,3.3c1.76,1.66,2.43,4.42,2.01,8.27L20.75,60.8
		c-0.2,2.01,0.44,3.37,1.92,4.07c1.47,0.7,3.4,1.05,5.78,1.05v6.96c-5.85,0-10.21-0.94-13.1-2.82c-2.89-1.88-4.07-5.23-3.56-10.04
		l1.22-11.75c0.29-2.7-0.43-4.62-2.17-5.75c-1.74-1.13-4.51-1.69-8.29-1.69v-7.88c3.76,0,6.51-0.56,8.27-1.68
		c1.76-1.12,2.49-3.03,2.19-5.73l-1.22-11.75c-0.54-4.86,0.64-8.23,3.54-10.09C18.23,1.83,22.6,0.9,28.45,0.9z"/>
	<path d="M64.25,55.97c1.72,0,3.33-0.32,4.83-0.96s2.96-1.45,4.38-2.43l4.42,6.23c-1.72,1.45-3.79,2.64-6.23,3.57
		c-2.43,0.93-5.04,1.4-7.81,1.4c-4.1,0-7.61-0.85-10.52-2.54c-2.91-1.7-5.14-4.08-6.69-7.15s-2.32-6.63-2.32-10.68
		c0-4,0.79-7.58,2.38-10.72c1.58-3.14,3.84-5.62,6.78-7.42c2.93-1.81,6.44-2.71,10.52-2.71c2.8,0,5.34,0.4,7.61,1.2
		c2.27,0.8,4.35,1.98,6.24,3.56l-4.31,5.97c-1.45-0.98-2.95-1.74-4.49-2.28c-1.55-0.54-3.13-0.81-4.75-0.81
		c-2.87,0-5.21,1.04-7.02,3.11c-1.81,2.08-2.71,5.45-2.71,10.11c0,4.62,0.92,7.87,2.76,9.74C59.17,55.03,61.48,55.97,64.25,55.97z"
		/>
	<path d="M98.55,7.16v20.89c1.62-1.84,3.44-3.22,5.47-4.13c2.03-0.91,4.14-1.36,6.35-1.36c3.59,0,6.28,1.01,8.09,3.04
		c1.81,2.03,2.71,4.87,2.71,8.53v28.55h-9.73V36.3c0-2.36-0.36-4.03-1.09-5.01c-0.72-0.98-1.96-1.47-3.7-1.47
		c-1.57,0-3.05,0.52-4.42,1.57c-1.38,1.04-2.6,2.32-3.68,3.81v27.48h-9.73V8.12L98.55,7.16z"/>
	<path d="M164.17,52.4c0,1.5,0.22,2.59,0.66,3.28c0.44,0.69,1.15,1.19,2.14,1.51l-2.1,6.52c-2.06-0.22-3.83-0.74-5.31-1.57
		s-2.6-2.06-3.39-3.7c-1.47,1.79-3.33,3.13-5.58,4.02c-2.25,0.88-4.6,1.33-7.06,1.33c-3.98,0-7.14-1.13-9.47-3.39
		c-2.33-2.26-3.5-5.19-3.5-8.8c0-4.15,1.63-7.35,4.88-9.6c3.25-2.25,7.87-3.37,13.83-3.37h5.45v-2.1c0-2.31-0.72-3.98-2.16-5.03
		c-1.44-1.04-3.48-1.57-6.13-1.57c-1.25,0-2.82,0.17-4.72,0.5c-1.89,0.33-3.82,0.84-5.78,1.53l-2.32-6.67
		c2.48-0.93,4.98-1.62,7.5-2.06c2.52-0.44,4.81-0.66,6.87-0.66c5.48,0,9.54,1.16,12.19,3.48c2.65,2.32,3.98,5.61,3.98,9.85V52.4z
		 M146.7,56.75c1.47,0,2.96-0.41,4.46-1.23c1.5-0.82,2.69-2,3.57-3.52V44.4h-3.83c-3.61,0-6.22,0.58-7.83,1.73
		c-1.61,1.16-2.41,2.79-2.41,4.9C140.66,54.84,142.68,56.75,146.7,56.75z"/>
	<path d="M195.81,8.08v43.25c0,1.69,0.5,2.9,1.51,3.61c1.01,0.71,2.35,1.07,4.02,1.07c1.06,0,2.08-0.12,3.06-0.35
		c0.98-0.23,1.92-0.52,2.8-0.87l2.39,6.63c-1.23,0.64-2.72,1.19-4.48,1.66c-1.76,0.47-3.79,0.7-6.1,0.7c-4.25,0-7.47-1.22-9.65-3.65
		c-2.19-2.43-3.28-5.71-3.28-9.84V14.97h-11.68V8.08H195.81z"/>
	<path d="M240.02,8.08v43.25c0,1.69,0.5,2.9,1.51,3.61c1.01,0.71,2.34,1.07,4.02,1.07c1.06,0,2.08-0.12,3.06-0.35
		c0.98-0.23,1.92-0.52,2.8-0.87l2.39,6.63c-1.23,0.64-2.72,1.19-4.48,1.66c-1.76,0.47-3.79,0.7-6.1,0.7c-4.25,0-7.47-1.22-9.65-3.65
		c-2.19-2.43-3.28-5.71-3.28-9.84V14.97h-11.68V8.08H240.02z"/>
	<path d="M273.95,46.14c0.29,3.66,1.38,6.3,3.24,7.92c1.87,1.62,4.14,2.43,6.82,2.43c1.87,0,3.62-0.29,5.27-0.88
		c1.64-0.59,3.27-1.41,4.86-2.47l4.05,5.56c-1.82,1.52-3.99,2.75-6.5,3.68c-2.52,0.93-5.29,1.4-8.31,1.4
		c-4.22,0-7.78-0.87-10.67-2.62c-2.89-1.74-5.07-4.16-6.54-7.26c-1.47-3.09-2.21-6.66-2.21-10.68c0-3.88,0.72-7.38,2.16-10.5
		c1.44-3.12,3.52-5.59,6.26-7.42c2.74-1.83,6.04-2.74,9.89-2.74c5.35,0,9.6,1.74,12.75,5.23c3.14,3.49,4.71,8.31,4.71,14.48
		c0,1.42-0.06,2.71-0.18,3.87H273.95z M282.31,29.41c-2.36,0-4.29,0.85-5.8,2.54c-1.51,1.69-2.4,4.35-2.67,7.96h16.43
		c-0.05-3.29-0.72-5.86-2.03-7.72C286.94,30.34,284.96,29.41,282.31,29.41z"/>
	<path d="M309.87,62.68V23.66h8.47l0.7,4.83c3.37-3.95,7.49-5.93,12.38-5.93c3.49,0,6.16,1.01,8.01,3.04
		c1.85,2.03,2.78,4.87,2.78,8.53v28.55h-9.73V37.92c0-2.95-0.3-5.03-0.9-6.26c-0.6-1.23-1.89-1.84-3.85-1.84
		c-1.6,0-3.08,0.5-4.46,1.51c-1.38,1.01-2.6,2.24-3.68,3.68v27.67H309.87z"/>
	<path d="M387.71,18.17l2.43,7.59c-1.47,0.52-3.14,0.88-4.99,1.09c-1.85,0.21-3.96,0.31-6.32,0.31c2.38,1.03,4.19,2.35,5.43,3.94
		c1.24,1.6,1.86,3.6,1.86,6.01c0,2.53-0.65,4.78-1.93,6.76c-1.29,1.98-3.12,3.54-5.49,4.68c-2.37,1.14-5.19,1.71-8.46,1.71
		c-1.87,0-3.52-0.18-4.97-0.55c-1.03,0.61-1.55,1.54-1.55,2.76c0,0.71,0.29,1.34,0.87,1.88c0.58,0.54,1.82,0.81,3.74,0.81h6.63
		c2.87,0,5.4,0.49,7.57,1.46c2.17,0.97,3.87,2.28,5.08,3.94c1.22,1.66,1.82,3.54,1.82,5.66c0,3.93-1.71,7-5.12,9.21
		c-3.41,2.21-8.4,3.32-14.96,3.32c-4.69,0-8.34-0.48-10.96-1.44c-2.62-0.96-4.45-2.35-5.51-4.18c-1.06-1.83-1.58-4.03-1.58-6.61
		h8.66c0,1.25,0.25,2.29,0.75,3.11c0.5,0.82,1.44,1.42,2.82,1.81c1.38,0.38,3.38,0.57,6,0.57c3.91,0,6.58-0.46,8.03-1.38
		s2.17-2.17,2.17-3.74c0-1.4-0.59-2.49-1.77-3.28c-1.18-0.79-2.85-1.18-5.01-1.18h-6.45c-3.93,0-6.79-0.76-8.58-2.28
		c-1.79-1.52-2.69-3.3-2.69-5.34c0-1.38,0.37-2.7,1.12-3.96c0.75-1.26,1.82-2.34,3.22-3.22c-2.41-1.28-4.15-2.81-5.21-4.59
		c-1.07-1.78-1.6-3.94-1.6-6.47c0-2.82,0.71-5.28,2.14-7.37c1.42-2.09,3.4-3.71,5.93-4.86c2.53-1.15,5.44-1.73,8.73-1.73
		c3.02,0.02,5.59-0.16,7.72-0.55c2.12-0.39,4-0.93,5.64-1.62C384.58,19.73,386.17,18.98,387.71,18.17z M369.77,29.08
		c-2.31,0-4.07,0.68-5.29,2.03c-1.22,1.35-1.82,3.14-1.82,5.38c0,2.31,0.62,4.14,1.86,5.49c1.24,1.35,3,2.03,5.29,2.03
		c4.57,0,6.85-2.54,6.85-7.63C376.66,31.51,374.36,29.08,369.77,29.08z"/>
	<path d="M406.57,46.14c0.29,3.66,1.38,6.3,3.24,7.92c1.87,1.62,4.14,2.43,6.82,2.43c1.87,0,3.62-0.29,5.27-0.88
		c1.64-0.59,3.27-1.41,4.86-2.47l4.05,5.56c-1.82,1.52-3.99,2.75-6.5,3.68c-2.52,0.93-5.29,1.4-8.31,1.4
		c-4.22,0-7.78-0.87-10.67-2.62c-2.89-1.74-5.07-4.16-6.54-7.26c-1.47-3.09-2.21-6.66-2.21-10.68c0-3.88,0.72-7.38,2.16-10.5
		c1.44-3.12,3.52-5.59,6.26-7.42c2.74-1.83,6.04-2.74,9.89-2.74c5.35,0,9.6,1.74,12.75,5.23c3.14,3.49,4.71,8.31,4.71,14.48
		c0,1.42-0.06,2.71-0.18,3.87H406.57z M414.94,29.41c-2.36,0-4.29,0.85-5.8,2.54c-1.51,1.69-2.4,4.35-2.67,7.96h16.43
		c-0.05-3.29-0.72-5.86-2.03-7.72C419.57,30.34,417.59,29.41,414.94,29.41z"/>
	<path d="M446.8,0.9c5.84,0,10.21,0.94,13.1,2.82c2.89,1.88,4.07,5.23,3.55,10.04l-1.22,11.79c-0.29,2.7,0.47,4.61,2.28,5.73
		s4.54,1.68,8.18,1.68v7.88c-3.61,0-6.33,0.57-8.16,1.69c-1.83,1.13-2.6,3.05-2.3,5.75l1.22,11.72c0.54,4.86-0.64,8.23-3.54,10.09
		c-2.9,1.87-7.27,2.8-13.12,2.8v-6.96c2.41,0,4.34-0.35,5.8-1.05c1.46-0.7,2.09-2.06,1.9-4.07l-1.29-12.34
		c-0.42-3.86,0.3-6.62,2.16-8.29c1.85-1.67,4.52-2.75,8.01-3.24c-3.59-0.56-6.28-1.69-8.07-3.39s-2.49-4.43-2.1-8.22l1.29-12.34
		c0.2-1.99-0.44-3.34-1.92-4.05c-1.47-0.71-3.4-1.07-5.78-1.07V0.9z"/>
</g>
<g>
</g>
<g>
</g>
<g>
</g>
<g>
</g>
<g>
</g>
<g>
</g>
</svg>
